HIERARCHY
ROOT Hips
{
	OFFSET -14.64140 90.27770 -84.91600
	CHANNELS 6 Xposition Yposition Zposition Zrotation Xrotation Yrotation
	JOINT Spine
	{
		OFFSET 0.00000 13.20850 -1.60436
		CHANNELS 3 Zrotation Xrotation Yrotation
		JOINT Spine1
		{
			OFFSET 0.00000 8.61716 0.00000
			CHANNELS 3 Zrotation Xrotation Yrotation
			JOINT Spine2
			{
				OFFSET 0.00000 8.61717 0.00000
				CHANNELS 3 Zrotation Xrotation Yrotation
				JOINT Spine3
				{
					OFFSET 0.00000 8.61717 0.00000
					CHANNELS 3 Zrotation Xrotation Yrotation
					JOINT Neck
					{
						OFFSET 0.00000 11.07920 1.10792
						CHANNELS 3 Zrotation Xrotation Yrotation
						JOINT Neck1
						{
							OFFSET 0.00000 7.08032 0.00000
							CHANNELS 3 Zrotation Xrotation Yrotation
							JOINT Head
							{
								OFFSET 0.00000 7.08031 0.00000
								CHANNELS 3 Zrotation Xrotation Yrotation
								End site
								{
									OFFSET 0.00000 0.00000 0.00000
								}
							}
						}
					}
					JOINT RightShoulder
					{
						OFFSET -0.01000 7.91373 5.19711
						CHANNELS 3 Zrotation Xrotation Yrotation
						JOINT RightArm
						{
							OFFSET -18.41580 0.00000 0.00000
							CHANNELS 3 Zrotation Xrotation Yrotation
							JOINT RightForeArm
							{
								OFFSET -29.11090 0.00000 0.00000
								CHANNELS 3 Zrotation Xrotation Yrotation
								JOINT RightHand
								{
									OFFSET -24.65040 0.00000 0.00000
									CHANNELS 3 Zrotation Xrotation Yrotation
									JOINT RightHandThumb1
									{
										OFFSET -5.35114 -0.85590 3.97906
										CHANNELS 3 Zrotation Xrotation Yrotation
										JOINT RightHandThumb2
										{
											OFFSET -4.52789 0.00000 0.00000
											CHANNELS 3 Zrotation Xrotation Yrotation
											JOINT RightHandThumb3
											{
												OFFSET -2.46976 0.00000 0.00000
												CHANNELS 3 Zrotation Xrotation Yrotation
												End site
												{
													OFFSET 0.00000 0.00000 0.00000
												}
											}
										}
									}
									JOINT RightHandIndex1
									{
										OFFSET -14.26970 0.00000 2.88139
										CHANNELS 3 Zrotation Xrotation Yrotation
										JOINT RightHandIndex2
										{
											OFFSET -5.48836 0.00000 0.00000
											CHANNELS 3 Zrotation Xrotation Yrotation
											JOINT RightHandIndex3
											{
												OFFSET -3.01859 0.00000 0.00000
												CHANNELS 3 Zrotation Xrotation Yrotation
												End site
												{
													OFFSET 0.00000 0.00000 0.00000
												}
											}
										}
									}
									JOINT RightHandMiddle1
									{
										OFFSET -14.26970 0.00000 -0.09147
										CHANNELS 3 Zrotation Xrotation Yrotation
										JOINT RightHandMiddle2
										{
											OFFSET -6.17441 0.00000 0.00000
											CHANNELS 3 Zrotation Xrotation Yrotation
											JOINT RightHandMiddle3
											{
												OFFSET -3.56743 0.00000 0.00000
												CHANNELS 3 Zrotation Xrotation Yrotation
												End site
												{
													OFFSET 0.00000 0.00000 0.00000
												}
											}
										}
									}
									JOINT RightHandRing1
									{
										OFFSET -12.69180 0.00000 -3.06433
										CHANNELS 3 Zrotation Xrotation Yrotation
										JOINT RightHandRing2
										{
											OFFSET -5.62556 0.00000 0.00000
											CHANNELS 3 Zrotation Xrotation Yrotation
											JOINT RightHandRing3
											{
												OFFSET -3.56744 0.00000 0.00000
												CHANNELS 3 Zrotation Xrotation Yrotation
												End site
												{
													OFFSET 0.00000 0.00000 0.00000
												}
											}
										}
									}
									JOINT RightHandPinky1
									{
										OFFSET -11.11390 0.00000 -6.03719
										CHANNELS 3 Zrotation Xrotation Yrotation
										JOINT RightHandPinky2
										{
											OFFSET -4.52789 0.00000 0.00000
											CHANNELS 3 Zrotation Xrotation Yrotation
											JOINT RightHandPinky3
											{
												OFFSET -2.46976 0.00000 0.00000
												CHANNELS 3 Zrotation Xrotation Yrotation
												End site
												{
													OFFSET 0.00000 0.00000 0.00000
												}
											}
										}
									}
								}
							}
						}
					}
					JOINT LeftShoulder
					{
						OFFSET 0.01000 7.91373 5.19711
						CHANNELS 3 Zrotation Xrotation Yrotation
						JOINT LeftArm
						{
							OFFSET 18.41580 0.00000 0.00000
							CHANNELS 3 Zrotation Xrotation Yrotation
							JOINT LeftForeArm
							{
								OFFSET 29.11090 0.00000 0.00000
								CHANNELS 3 Zrotation Xrotation Yrotation
								JOINT LeftHand
								{
									OFFSET 24.65040 0.00000 0.00000
									CHANNELS 3 Zrotation Xrotation Yrotation
									JOINT LeftHandThumb1
									{
										OFFSET 5.35114 -0.85590 3.97906
										CHANNELS 3 Zrotation Xrotation Yrotation
										JOINT LeftHandThumb2
										{
											OFFSET 4.52789 0.00000 0.00000
											CHANNELS 3 Zrotation Xrotation Yrotation
											JOINT LeftHandThumb3
											{
												OFFSET 2.46977 0.00000 0.00000
												CHANNELS 3 Zrotation Xrotation Yrotation
												End site
												{
													OFFSET 0.00000 0.00000 0.00000
												}
											}
										}
									}
									JOINT LeftHandIndex1
									{
										OFFSET 14.26970 0.00000 2.88139
										CHANNELS 3 Zrotation Xrotation Yrotation
										JOINT LeftHandIndex2
										{
											OFFSET 5.48836 0.00000 0.00000
											CHANNELS 3 Zrotation Xrotation Yrotation
											JOINT LeftHandIndex3
											{
												OFFSET 3.01859 0.00000 0.00000
												CHANNELS 3 Zrotation Xrotation Yrotation
												End site
												{
													OFFSET 0.00000 0.00000 0.00000
												}
											}
										}
									}
									JOINT LeftHandMiddle1
									{
										OFFSET 14.26970 0.00000 -0.09147
										CHANNELS 3 Zrotation Xrotation Yrotation
										JOINT LeftHandMiddle2
										{
											OFFSET 6.17440 0.00000 0.00000
											CHANNELS 3 Zrotation Xrotation Yrotation
											JOINT LeftHandMiddle3
											{
												OFFSET 3.56744 0.00000 0.00000
												CHANNELS 3 Zrotation Xrotation Yrotation
												End site
												{
													OFFSET 0.00000 0.00000 0.00000
												}
											}
										}
									}
									JOINT LeftHandRing1
									{
										OFFSET 12.69180 0.00000 -3.06433
										CHANNELS 3 Zrotation Xrotation Yrotation
										JOINT LeftHandRing2
										{
											OFFSET 5.62556 0.00000 0.00000
											CHANNELS 3 Zrotation Xrotation Yrotation
											JOINT LeftHandRing3
											{
												OFFSET 3.56744 0.00000 0.00000
												CHANNELS 3 Zrotation Xrotation Yrotation
												End site
												{
													OFFSET 0.00000 0.00000 0.00000
												}
											}
										}
									}
									JOINT LeftHandPinky1
									{
										OFFSET 11.11390 0.00000 -6.03719
										CHANNELS 3 Zrotation Xrotation Yrotation
										JOINT LeftHandPinky2
										{
											OFFSET 4.52789 0.00000 0.00000
											CHANNELS 3 Zrotation Xrotation Yrotation
											JOINT LeftHandPinky3
											{
												OFFSET 2.46976 0.00000 0.00000
												CHANNELS 3 Zrotation Xrotation Yrotation
												End site
												{
													OFFSET 0.00000 0.00000 0.00000
												}
											}
										}
									}
								}
							}
						}
					}
					JOINT pCube4
					{
						OFFSET 0.00000 10.91090 1.10792
						CHANNELS 3 Zrotation Xrotation Yrotation
						End site
						{
							OFFSET 0.00000 0.00000 0.00000
						}
					}
				}
			}
		}
	}
	JOINT RightUpLeg
	{
		OFFSET -9.98441 0.00000 0.00000
		CHANNELS 3 Zrotation Xrotation Yrotation
		JOINT RightLeg
		{
			OFFSET 0.00000 -42.11790 0.00000
			CHANNELS 3 Zrotation Xrotation Yrotation
			JOINT RightFoot
			{
				OFFSET 0.00000 -45.00020 -0.00001
				CHANNELS 3 Zrotation Xrotation Yrotation
				JOINT RightForeFoot
				{
					OFFSET 0.00000 -3.74820 0.00000
					CHANNELS 3 Zrotation Xrotation Yrotation
					JOINT RightToeBase
					{
						OFFSET 0.00000 0.06325 14.43120
						CHANNELS 3 Zrotation Xrotation Yrotation
						End site
						{
							OFFSET 0.00000 0.00000 0.00000
						}
					}
				}
			}
		}
	}
	JOINT LeftUpLeg
	{
		OFFSET 9.98441 0.00000 0.00000
		CHANNELS 3 Zrotation Xrotation Yrotation
		JOINT LeftLeg
		{
			OFFSET 0.00000 -42.11800 0.00000
			CHANNELS 3 Zrotation Xrotation Yrotation
			JOINT LeftFoot
			{
				OFFSET 0.00000 -45.00070 0.00000
				CHANNELS 3 Zrotation Xrotation Yrotation
				JOINT LeftForeFoot
				{
					OFFSET 0.00000 -3.74824 0.00000
					CHANNELS 3 Zrotation Xrotation Yrotation
					JOINT LeftToeBase
					{
						OFFSET 0.00000 0.06325 14.43110
						CHANNELS 3 Zrotation Xrotation Yrotation
						End site
						{
							OFFSET 0.00000 0.00000 0.00000
						}
					}
				}
			}
		}
	}
}
MOTION
Frames: 4
Frame Time: 0.050000
-0.0070566149954360505 -0.010310228327045999 0.025835708358593397 0.03461123116807671 0.04238335038227281 0.0014627698745002984 5.461551152114752 3.5567842777999656 -2.2047870975907844 -0.801803126252013 3.6523948605353014 0.35536929789211713 -0.5699975761800579 -1.0758803998192525 0.8920598501266558 -0.5557608993596578 -0.31844558739966755 -0.23171254904217348 -0.12061848273686258 12.611095355628953 -1.1946429070625602 0.3821118979710539 -0.7288048104900654 -2.2460415135220475 0.8973438911280768 -17.5446468769133 -0.21132835739299383 -9.97332283539836 3.4705361538965915 -17.951120728596013 83.81615261677358 8.721087820767817 2.144837442238708 -4.298041387325021 7.305110039853846 44.15761493151151 17.612765099171806 -0.2842720634530813 -2.7233074001266373 4.534495231128694 -0.09825631529842797 -1.613869377794933 -0.010029549355002538 0.03823547664559346 -56.20331004490449 0.038914873590940785 -0.0301682545819034 -56.27258345186442 -38.774618771670085 0.025979858132172292 -0.007296972745543352 0.003236693496050732 -0.049039890176550284 0.02494257040199197 -0.046903174932338795 -0.007511845717628137 0.019422523635895448 -36.68703132498676 -0.03564242648760079 -0.049154068650500746 -0.03231880353405723 -0.022328249515657136 -0.046348693705304034 -0.0314329673215509 0.017737056560250878 -0.025761026632933393 -19.775549014134203 -0.028781685911769474 -0.009381738752523374 -0.013898761623613568 0.03900350428725327 -0.005052073096926538 -0.015926691711263374 0.039879706973315 0.013822675035434343 24.039252456853752 -0.0023110225691540197 0.04496734225375679 28.83501140444555 -0.025844145057426146 -0.03873733765829237 28.856829971806167 0.01652370260132631 0.024640698311019848 10.088639807395575 2.4487266645376167 15.18008172281357 -78.44506509885568 17.703273420381052 -12.615952576323359 2.183652534084043 7.146625507187971 -45.86022220542722 -18.97235387740161 -0.7897742271924091 0.862415190647707 -0.4737922822682496 0.10691057268799087 -8.172543029767347 0.031426614777451664 -0.01391905165392759 44.573840856090946 -0.02832091071142997 -0.037326081366719915 44.52695418076688 12.495356411637914 0.013943717575436256 0.0049345957390663775 -0.0038310518081179235 0.002440590220304616 -0.026251520989658297 -0.023046742962209352 -0.024781146099028085 -0.03081608123588104 11.143524792005632 -0.03030759848837415 -0.033957487722536615 -0.04264496850527302 -0.04330636502071457 0.00473243329267082 0.002818046845529866 0.03861219667009153 0.04851905029973878 4.737064199839498 -0.011159467796761012 -0.010675517848381073 -0.009953738796505943 -0.015119658703319628 -0.010632482749578 -0.024324331658185105 -0.023825165887166894 -0.0025227222816392694 -5.61507781670459 0.028502385330634802 -0.008888078142007054 -6.702279104673283 0.04430175452415513 -0.04894434774690379 -6.740791079710485 -0.025962468796870763 -0.019315512470115932 -0.035513929288312096 0.01870614442902752 -0.041044950071478584 8.07119002112233 3.4950540801582113 -19.21790763597929 -0.026572687842691685 10.423511194984236 -0.009891185590120154 -5.649311258090354 -15.661078012890757 3.187208294448511 0.021077790064335574 -0.00027707749444017406 0.03577722988238714 0.02975072725687067 4.72988596097801 -0.022908241464302915 12.49673307364895 -8.279726883067298 6.89927687465962 0.04604721875566164 46.39737728045598 0.028757874608586847 -4.345774854994344 -14.75973323490815 -3.824232352489799 -0.008843133163702832 0.016721359654588586 0.0037898192622366376 -0.04607181602409356 -10.730767835221663 0.007818563468708855 
0.03323250192025241 0.003589533706188733 -0.020136842996915823 -0.006099741274424943 0.007745832526378688 -0.007495445408955315 5.539750693876328 3.4626823088597445 -2.2099993192977303 -0.7845718675329416 3.6085197349656166 0.40941055814434024 -0.5091656422557368 -1.1301401524383916 0.808947696841178 -0.5115965902698361 -0.3070623132850201 -0.23657562936088858 -0.33453237418011883 12.99840992982104 -0.9812162882665643 0.3398870899491264 -0.6368209957488233 -1.6326303840468452 0.7892472342366658 -17.472923303296323 -0.218245020667715 -10.083385379917479 3.5112093238739908 -18.019192710618917 83.92196583569377 8.445972266805663 2.451554147154928 -4.184565265768083 7.502770817039973 44.31314257753144 17.77445094126769 -0.24207066670117242 -2.511993163001105 4.568217054915337 -0.1085710650781986 -1.5723429323030054 0.042084281440983605 0.0008220420908545054 -56.19522155688088 -0.010919354394789891 -0.030583958890249893 -56.22286520282481 -38.790290853624924 0.008989929164900325 -0.02560070295282585 -0.03214459551356697 0.020249648070152466 0.03949332195067935 0.0015541060861240224 0.02454327415444565 0.030892078460927726 -36.6554838747853 0.04271576771971355 0.03269371014428874 0.04273958660125135 -0.02728669742143117 -0.00820439345994153 -0.047026952101698535 -0.03822146000994796 -0.03906085071734713 -19.794700609224197 0.005884224744621522 0.043633065436974636 0.02393240110007748 0.025134001741068675 0.0034188539390042657 0.04818434842100431 0.019122453093244476 0.03701026793105188 24.02046337477846 -0.02903974139241453 -0.0038445274143066527 28.871777344253523 0.01995208426396061 0.025419251047082553 28.827649273480798 -0.03864460545528482 -0.009984929237761992 10.87871873997302 2.582170214444115 15.472528097238094 -79.07401351002189 15.660012179344783 -16.666525617090183 0.5683456021648138 9.496942250980329 -50.74145349736872 -18.10952044737423 -0.33522394133056416 0.17102253960753663 -0.4417380232498886 0.08207611764547423 -8.10218419021502 -0.003497102130378008 -0.006888799897574625 44.550549669879906 0.044087042932227066 0.022867909699526477 44.55800070651968 12.488692483617738 -0.03711727085468364 0.020605538830446128 -0.034176702628311 -0.02765912608983405 0.03611197056624459 -0.0335558745801676 -0.03767947297723922 0.03732335539295042 11.093834944537951 -0.048209371192043333 -0.04431485870600273 0.008664734782075993 -0.048172991689827985 -0.006374676498493836 0.02510687269064829 -0.02181964188238288 -0.03636437737389184 4.732488836315965 0.03894698004487932 -0.011359908922884509 -0.041744330396388855 -0.017661248543583984 -0.012496131499907857 -0.036062922242906956 0.009571989617528823 -0.004014750560703767 -5.569969131986105 0.004928039127840457 0.013452613241891587 -6.714409970617291 0.00024926800979376056 0.044559614684432654 -6.7074578196974874 -0.048161732653732844 -0.027799225106117157 -0.001492864699488945 0.031030317969040867 0.028281277132135293 8.059671650616492 3.481721641240518 -19.25394405281367 0.023183048304020674 10.363069867569397 0.00548417567502066 -5.614417707556498 -15.632861005467118 3.193739598653374 -0.011360915054680112 0.03375026133977628 -0.04077809758086814 0.005753889076376936 4.666773328789054 0.011012375420301515 12.502851164400587 -8.236193495336543 6.833485430066914 0.021967282189831152 46.36393991849894 0.007062179685055295 -4.299829010519302 -14.735151302787756 -3.793961736897775 -0.013715545809312031 -0.0483839095316711 -0.008009730170901803 0.008213550878865236 -10.769410758857104 -0.00825002149675901 
0.011157979786539101 0.029961311854444603 0.043017539591841736 0.014008978337735182 0.030858557288962363 -0.008572331622545101 5.584312336625419 3.3886325797793027 -2.2988691029727732 -0.7238717211189064 3.707830508959691 0.3980506425426203 -0.48466794163017407 -1.1460904150491613 0.6610053433157905 -0.5545155209466961 -0.34005337803633434 -0.28002921269139913 -0.5002357636991551 13.455704427980615 -0.8363593668953206 0.37700060606966157 -0.5508903142555898 -1.1603772154738856 0.7860972326170834 -17.352705314485718 -0.1650356943766045 -10.27283709423876 3.4711938759152083 -17.99670026752817 83.82588305047642 8.02420125579797 2.7825377129160245 -4.12852965114656 7.612646582264461 44.24987383508027 17.893983330951297 -0.2504932358045027 -2.384098551268377 4.52592272027117 -0.11796119938262496 -1.6077350035900841 -0.0436114022828105 -0.004292695138213136 -56.23500177180311 -0.020931866453504387 -0.011347362384947103 -56.225266372098055 -38.8148784746249 -0.010982947539521375 0.018457884888356244 -0.014033207169826931 -0.026724766980195214 0.04519528770240631 -0.02805783630851602 0.04072304487328208 -0.0320636182971673 -36.68315866218983 0.024746584036248628 0.005571694737138196 0.030351791979774972 0.013417127707786186 -0.0334173028594695 0.04513084784583331 0.038191622243559445 -0.0038725888522003434 -19.792667603517817 0.007955624495354556 -0.02040429588051963 0.034047087630997674 -0.0014380918937868723 -0.007265623380581615 -0.0001843600576896869 0.044927839857974224 -0.00944564753372562 24.05943444522543 0.01606696643307761 -0.0016812673420686318 28.860067305559852 -0.028784385673938862 -0.00580034571338255 28.866043950630925 0.03785877089143497 -0.049540194243532044 11.71950167865078 2.7352662323234105 15.630109881325879 -79.60280094724693 12.94904277645806 -21.28970378056964 -0.9508507051380215 11.679076162909169 -56.26386373413048 -16.940721275387617 0.37182298823560467 -0.8383435824236173 -0.45674295146266264 0.061053253991168406 -8.152054346073927 -0.03927506767237575 0.021943167620706833 44.604807095039654 -0.013512043260676102 -0.007859775420311714 44.56074815671454 12.471423868555569 -0.005005449845333816 0.037805593042795356 0.014783230937111185 0.029004421112592105 0.04199868457338338 0.001282654594729182 -0.020430260857973497 0.047906769032207926 11.10721135022184 -0.015628637886815306 -0.019809804315489007 -0.04568947512121933 -0.03652911462163614 -0.026455677139537646 0.0172570104905193 -0.04309776438309936 -0.015206553722732255 4.804711246987951 -0.03495070725350235 -0.02557467963663091 -0.020489150122887375 -0.011311595311571117 -9.803037680242874e-05 -0.00778820683283754 0.016354147702935425 -0.02182547118558031 -5.628088518118754 0.005502681500733538 0.03311619317159183 -6.717853159718664 -0.03140691490149631 -0.039640206715834875 -6.687668477153368 0.02394047505711726 -0.0019468574916605569 -0.013108312859947633 -0.014379506791915053 -0.02497444092580033 8.030808381896746 3.5319544365356967 -19.21159080588474 0.02141123079667913 10.398273577877745 -0.028127485289913 -5.627785597437511 -15.644819304067779 3.2373286924769498 0.03167071920972188 -0.02929615738983243 0.020798508724296012 -0.04552970602812832 4.726120321637424 0.004141293803367372 12.446137383637486 -8.227393801590168 6.851331389145853 -0.01115667622532417 46.40506360199474 -0.017937774529279887 -4.341833235454135 -14.72326341845689 -3.8280037018180684 -0.018448536004612635 0.033240802752975286 -0.016368588614985434 -0.004970857868253227 -10.753801425909494 -0.02521279948781345 
-0.010253262102350037 0.00711017159912218 0.026807418735252966 -0.049266321793830836 0.021800435901969967 -0.0028253486025286672 5.597426444471723 3.245324805140801 -2.217827738005785 -0.7346792667594154 3.680485434123697 0.39163152636922566 -0.4666179530078624 -1.1854076483011067 0.5525725086725821 -0.5667232080406894 -0.41731090797333525 -0.24417973664315784 -0.6115549845283901 13.646623351139434 -0.8188288424397959 0.4112825569896659 -0.5834770958373247 -0.8070550668090232 0.6735502857689047 -17.33034025638218 -0.11662732257946494 -10.230190182831933 3.465654733367932 -18.018763595882497 83.6873509432284 7.857534807879975 2.779815176904614 -4.07093536214228 7.623052576086533 43.9751238528844 17.971922304663117 -0.2128946474850608 -2.2595830533115158 4.523014650839124 -0.1498984592110831 -1.640325325888359 -0.04330299534288018 0.03413595751500254 -56.24675274273378 -0.02971093350916549 0.003635696305136815 -56.18820594272951 -38.73734250329284 0.006619148851770406 -0.008682947439214 -0.04723355981630911 -0.040893538442902416 0.04218988132871399 -0.020936495975362165 -0.013321117458050983 0.01305588212383887 -36.73807876538006 -0.04818490195239756 -0.032197042602463456 -0.035438995604512046 0.03203519920961659 0.02827599805014944 -0.03680718977615493 0.030246526747075 0.043206844853152744 -19.77926967136938 -0.0049540280871505134 -0.04251441443555497 -0.031500370764005595 0.021537333462552707 0.03901944207678055 0.01948024024308343 -0.04281894942023538 0.04154232994348113 24.0543075500761 0.03470917279482778 0.03604962088029489 28.828968989763002 0.03814797223317086 0.027704320173675353 28.90458987444083 0.03925439359604788 -0.03852194760370625 12.271512103604888 2.767265096943894 15.786793880156035 -79.79955409891551 10.991383549957916 -24.6724935585517 -1.7017503595367591 13.124298302288903 -60.49027606352911 -15.789607050602601 1.091471411375798 -1.6163775635415307 -0.42513275258625866 0.06468870907198104 -8.099431696947882 0.0156841179002641 0.00458223961449594 44.58503397044714 0.03349090519160729 0.040377798429902065 44.55558948061052 12.49426392698873 0.010268752699368283 0.008131519309975804 -0.0081418303586539 0.039987200724665 0.025304672659381116 -0.014310894917126196 0.031384348910037135 -0.021592164850070546 11.097029629928493 0.029600417392271136 0.045246955619181066 0.0428405476467131 -0.03211904025848361 -0.04402481882831835 0.008185859381473556 -0.005187567338630685 0.005298642389428258 4.7461779513206 -0.03206353804708381 0.000876766588664389 0.032586431154452845 -0.013417717693930454 -0.000990057657159373 -0.02094071557533609 -0.01596086430566493 -0.02506718451579916 -5.6415292331139355 0.012543891891263922 -0.015435694744500999 -6.7373636769014436 -0.016173024359783628 -0.044103346959668714 -6.683988061348313 -0.04642656294635853 0.015815264779433475 -0.022796091470498756 -0.019544934490201636 0.025384605218283514 7.996489746234157 3.5069145459627022 -19.23840003931422 -0.039779115459670715 10.41648614377856 0.02572324239513138 -5.666058640587085 -15.704379539670247 3.201093940962395 0.045601683911185194 0.015242501275932734 0.04220921562594639 0.013929647500692687 4.703420007946463 0.020582779567444438 12.469278064614036 -8.283452765922874 6.863847243506488 -0.0026776193454743796 46.37172657697062 0.0018315568747164052 -4.351071751095616 -14.712722696965775 -3.793531103168788 -0.006133428970948757 0.025095503306886747 0.030269516157818033 0.030973233549180575 -10.730466346712175 -0.03586497456526931 
